# xmcd
#
# Track frame offsets:
#	150
#	13507
#	29145
#	43327
#	60148
#	78930
#	96458
#	109999
#	125750
#	140604
#	156238
#	171850
#	186510
#	203601
#	220248
#	235890
#	252929
#	268935
#	278960
#	295626
#
# Disc length: 4186 seconds
#
# Revision: 0
# Processed by: cddbd v1.5.2PL0 Copyright (c) Steve Scherf et al.
# Submitted via: audiograbber 1.83.01
#
DISCID=34105814
DTITLE=diverse - 2002 A.H. Tour Norderney Vol.03  2002
DYEAR=2002
DGENRE=Dance
TTITLE0=Ohio Express - Simple Simon Says
TTITLE1=DJ Ötzi and Hermes House Band - Live Is Life
TTITLE2=Klaus and Klaus - Die Krankenschwester
TTITLE3=Balneario - Anita 2002 (Du Zicke)
TTITLE4=Olaf Henning - Du Luder Mix 
TTITLE5=Roger Whittaker - Tanz Heut Nacht Mit Mir
TTITLE6=Olsen Brothers - Fly On The Wings Of Love
TTITLE7=Claudia Jung - Auch Wenn Es Nicht Vernünftig Ist
TTITLE8=Right Said Fred - Lovesong
TTITLE9=Guido Hoffmann - Himalaya
TTITLE10=Las Ketchup - The Ketchup Song
TTITLE11=Shakira - Whenever, Wherever
TTITLE12=Kylie Minogue - Cant Get You Out Of My Head
TTITLE13=Alex C. Feat Yasmin K. - Rhythm Of The Night
TTITLE14=Jan Wayne - Because the Night
TTITLE15=Jeannine - Halt mich fest
TTITLE16=Sound Convoy - Oh Susanna
TTITLE17=The Everly Brothers - Bye Bye Love
TTITLE18=Ireen Sheer - Heut Abend Hab Ich Kopfweh
TTITLE19=Paveier - Er war der weisseste Mann am Strand
EXTD=
EXTT0=
EXTT1=
EXTT2=
EXTT3=
EXTT4=
EXTT5=
EXTT6=
EXTT7=
EXTT8=
EXTT9=
EXTT10=
EXTT11=
EXTT12=
EXTT13=
EXTT14=
EXTT15=
EXTT16=
EXTT17=
EXTT18=
EXTT19=
PLAYORDER=
